M48
METRIC,LZ,000.000
;FILE_FORMAT=3:3
;TYPE=PLATED
;Layer: Drill PTH
;EasyEDA v6.4.25, 2021-11-25T17:10:39+00:00
;af4d78e2c0a6465aa0e43a92e4f8f8c3,fa2b77c0ec1047208735ea1b46d97466,10
;Gerber Generator version 0.2
;Holesize 1 = 0.305 mm
T01C0.305
;Holesize 2 = 0.891 mm
T02C0.891
;Holesize 3 = 0.966 mm
T03C0.966
;Holesize 4 = 0.970 mm
T04C0.970
;Holesize 5 = 1.000 mm
T05C1.000
;Holesize 6 = 1.800 mm
T06C1.800
%
G05
G90
T01
X042600Y025200
X019400Y003000
X023200Y008200
X021600Y009800
X017200Y004600
X016200Y004400
X015200Y004200
X011200Y010200
X017000Y008000
X016000Y008000
X015000Y008000
X015000Y009000
X017000Y009000
X017000Y010000
X016000Y010000
X015000Y010000
X016000Y009000
X006000Y007800
X018400Y014600
X023400Y013000
X016400Y013000
X015400Y013000
X017200Y013000
X024000Y016500
X020500Y016500
X017000Y017000
X015500Y017000
X014600Y017000
X010000Y017000
X008250Y015000
X014501Y012499
X054000Y038400
X014400Y004000
X039400Y014800
X032200Y014800
X018400Y006600
T02
X019810Y039002
X017270Y039002
X014730Y039002
X012190Y038999
T03
X002570Y020109
X005110Y020109
X007650Y020109
X010190Y020109
X012730Y020109
X015270Y020109
X017810Y020109
X020350Y020109
X022890Y020109
X025430Y020109
X027970Y020109
X030510Y020109
T04
X033050Y020109
X035590Y020109
X035590Y035349
X033050Y035349
X030510Y035349
X027970Y035349
X025430Y035349
X022890Y035349
X020350Y035349
X017810Y035349
X015270Y035349
X012730Y035349
X010190Y035349
X007650Y035349
X005110Y035349
X002570Y035349
T05
X028730Y003000
X031270Y003000
X022730Y003000
X025270Y003000
X044729Y038999
X047269Y038999
X038730Y038999
X041270Y038999
X037498Y017250G85X037503Y017250
X042497Y017250G85X042502Y017250
X037498Y002750G85X037503Y002750
X039997Y002750G85X040003Y002750
X042497Y002750G85X042502Y002750
X005650Y004050G85X003650Y004050
X009350Y008250G85X009350Y006250
X005650Y009950G85X003650Y009950
T06
X034300Y009849G85X034300Y010649
X045700Y009849G85X045700Y010649
M30
