G04 Layer: TopLayer*
G04 EasyEDA v6.4.25, 2021-11-25T17:10:39+00:00*
G04 af4d78e2c0a6465aa0e43a92e4f8f8c3,fa2b77c0ec1047208735ea1b46d97466,10*
G04 Gerber Generator version 0.2*
G04 Scale: 100 percent, Rotated: No, Reflected: No *
G04 Dimensions in millimeters *
G04 leading zeros omitted , absolute positions ,4 integer and 5 decimal *
%FSLAX45Y45*%
%MOMM*%

%ADD11C,1.0000*%
%ADD12C,0.5000*%
%ADD13C,0.3000*%
%ADD14C,2.0000*%
%ADD15C,0.7000*%
%ADD16C,0.2800*%
%ADD17C,0.6096*%
%ADD18R,1.0000X3.0000*%
%ADD19R,0.9000X0.8000*%
%ADD20R,1.5500X1.0000*%
%ADD21R,1.3005X1.3005*%
%ADD22R,1.3005X1.9990*%
%ADD23R,0.8000X0.5000*%
%ADD24C,1.5240*%
%ADD26R,2.7000X1.2000*%
%ADD27R,1.9000X1.2000*%
%ADD28C,1.6000*%
%ADD29C,2.0320*%
%ADD30C,2.0300*%
%ADD32C,1.6500*%
%ADD33C,1.5000*%

%LPD*%
G36*
X4999990Y4100017D02*
G01*
X5700014Y100025D01*
X5700014Y4100017D01*
G37*
G36*
X4900015Y4100017D02*
G01*
X4900015Y100025D01*
X5599988Y100025D01*
G37*
D11*
X511047Y3534918D02*
G01*
X511047Y2570987D01*
X257047Y2316987D01*
X257047Y2010918D01*
D12*
X4260001Y2159990D02*
G01*
X4260001Y1735114D01*
X4249927Y1725040D01*
X4260011Y2520010D02*
G01*
X4260011Y2720002D01*
X4260006Y2720007D01*
D13*
X1750060Y1150112D02*
G01*
X1800097Y1150112D01*
X1800097Y1350010D01*
X1750060Y1400047D01*
X1350010Y1050036D02*
G01*
X1340104Y1059942D01*
X1240028Y1059942D01*
X1119886Y1180084D01*
X999997Y1180084D01*
X868934Y1049020D01*
X868934Y1049020D02*
G01*
X599998Y780087D01*
X599998Y780008D01*
X2400045Y1599945D02*
G01*
X2400045Y1649984D01*
X1460002Y1700001D02*
G01*
X1549999Y1699999D01*
X2543047Y3534918D02*
G01*
X2543047Y3337052D01*
X2740152Y3139947D01*
X4979924Y3139947D01*
X4979924Y3040126D01*
D12*
X260095Y1759965D02*
G01*
X199897Y1759965D01*
X100076Y1860042D01*
X100076Y3377945D01*
X257047Y3534918D01*
D13*
X2050034Y1649984D02*
G01*
X2048509Y1599945D01*
X1700021Y1700021D02*
G01*
X1759965Y1700021D01*
X1860042Y1599945D01*
X2400045Y1599945D01*
X1549999Y1699999D02*
G01*
X1699999Y1699999D01*
X2940001Y1480002D02*
G01*
X2934322Y1474322D01*
X2934322Y1154300D01*
X3430023Y1025019D02*
G01*
X3330704Y925700D01*
X2934322Y925700D01*
X257047Y3534918D02*
G01*
X482092Y3759962D01*
X1459999Y3760002D01*
X1472945Y3767073D01*
X1472945Y3900170D01*
X2034997Y3534994D02*
G01*
X2020001Y3549990D01*
X2020001Y3700002D01*
X1980001Y3740002D01*
X1820001Y3740002D01*
X1726996Y3833007D01*
X1726996Y3900119D01*
X2288997Y3534994D02*
G01*
X2280000Y3543990D01*
X2280000Y3780002D01*
X2159883Y3900119D01*
X1980996Y3900119D01*
X5400040Y3839971D02*
G01*
X5400040Y3999992D01*
X3304997Y3534994D02*
G01*
X3320000Y3519990D01*
X3320000Y3320000D01*
X3360000Y3280001D01*
X3800002Y3280001D01*
X4260004Y3740002D01*
X4360001Y3740002D01*
X4472990Y3852992D01*
X4472990Y3899992D01*
X3050997Y3534994D02*
G01*
X3415995Y3899992D01*
X3872991Y3899992D01*
X3559047Y2010918D02*
G01*
X3559047Y1881123D01*
X3715004Y1725168D01*
X3750056Y1725168D01*
X3051047Y2010918D02*
G01*
X3059938Y2002028D01*
X3059938Y1899920D01*
X3750056Y1210055D01*
X3750056Y275081D01*
X3304997Y2010994D02*
G01*
X3304997Y1815005D01*
X4249935Y870066D01*
X4249935Y274957D01*
X1939998Y219986D02*
G01*
X1940001Y219989D01*
X1940001Y299999D01*
X1739999Y210009D02*
G01*
X1749978Y219989D01*
X1940001Y219989D01*
X1499870Y649986D02*
G01*
X1500002Y580001D01*
X1439926Y400050D01*
X1850003Y799937D02*
G01*
X2299936Y799937D01*
X2320000Y820000D01*
X1850003Y950051D02*
G01*
X2130051Y950051D01*
X2160000Y980000D01*
X1850003Y1050127D02*
G01*
X2019876Y1220000D01*
X2520002Y1220000D01*
X2540002Y1200000D01*
X2540002Y800000D01*
X2272992Y532991D01*
X2272992Y299996D01*
X1850003Y849975D02*
G01*
X2195657Y849975D01*
X2385682Y1040000D01*
X1880107Y560070D02*
G01*
X1940001Y500179D01*
X1940001Y419988D01*
X1650029Y650001D02*
G01*
X1650029Y529970D01*
X1720001Y459999D01*
X1700021Y649986D02*
G01*
X1701292Y560070D01*
X1880107Y560070D01*
X1449834Y649988D02*
G01*
X1359915Y649988D01*
X1359915Y310006D01*
X1740001Y310006D01*
X1599989Y650001D02*
G01*
X1599989Y460027D01*
X1620012Y440004D01*
X1549951Y650001D02*
G01*
X1549951Y449927D01*
X1520012Y419988D01*
X1119886Y510031D02*
G01*
X1119886Y459994D01*
X759968Y459994D01*
X465073Y754887D01*
X465073Y994918D01*
X1279905Y800100D02*
G01*
X1260000Y780194D01*
X1260000Y620001D01*
X1250000Y610001D01*
X1120000Y610001D01*
X1350010Y849884D02*
G01*
X1249934Y849884D01*
X1210055Y810005D01*
X1210055Y750062D01*
X1119886Y750062D01*
X1350010Y799845D02*
G01*
X1279905Y800100D01*
X1350004Y900013D02*
G01*
X1170012Y900013D01*
X1120000Y850000D01*
X1329944Y799845D02*
G01*
X1350010Y799845D01*
X1350004Y950051D02*
G01*
X1549953Y950051D01*
X1599991Y900013D01*
X1350007Y1000086D02*
G01*
X1139913Y1000086D01*
X1120012Y1019987D01*
X1849120Y899668D02*
G01*
X1599945Y899921D01*
X1840001Y1459999D02*
G01*
X1860011Y1439989D01*
X2050006Y1439989D01*
X2340000Y1299999D02*
G01*
X2400000Y1359999D01*
X2400000Y1440004D01*
X1549951Y1150000D02*
G01*
X1549951Y1290048D01*
X1540002Y1299997D01*
X1650032Y1150000D02*
G01*
X1650032Y1289966D01*
X1640001Y1299997D01*
X1700019Y1249934D02*
G01*
X1720011Y1269923D01*
X1720011Y1299997D01*
X1350004Y950051D02*
G01*
X990051Y950051D01*
X935014Y895014D01*
X935014Y724989D01*
X1700021Y1150112D02*
G01*
X1700021Y1249934D01*
X1499870Y1150112D02*
G01*
X1499870Y1249934D01*
X1450086Y1249934D01*
X824969Y1499999D02*
G01*
X1000000Y1675030D01*
X1000000Y1699999D01*
X1200000Y1699999D02*
G01*
X1000000Y1699999D01*
X2400000Y1759993D02*
G01*
X2400000Y1649999D01*
X2050034Y1759965D02*
G01*
X2050034Y1649984D01*
X1699999Y1599999D02*
G01*
X1699999Y1699999D01*
X1549999Y1599986D02*
G01*
X1549999Y1699999D01*
X1400002Y1600001D02*
G01*
X1459992Y1659991D01*
X1459992Y1699996D01*
X1449831Y1150112D02*
G01*
X1439926Y1139952D01*
X1349502Y1140460D01*
X1349502Y1400047D01*
X1200000Y1499999D02*
G01*
X1200000Y1399999D01*
X1699999Y1499999D02*
G01*
X1699999Y1399999D01*
X1549999Y1499986D02*
G01*
X1549999Y1399999D01*
X1399999Y1499999D02*
G01*
X1399999Y1399999D01*
D12*
X1750105Y1399999D02*
G01*
X1449877Y1399999D01*
X1449877Y1399999D02*
G01*
X1100000Y1399999D01*
X694992Y994991D01*
X465013Y994991D01*
X575035Y1650113D02*
G01*
X449882Y1650113D01*
X339979Y1760016D01*
X259994Y1760016D01*
X199999Y1269987D02*
G01*
X259994Y1329982D01*
X259994Y1440002D01*
X584939Y1500002D02*
G01*
X399999Y1500002D01*
X340001Y1440002D01*
X259994Y1440002D01*
X465013Y994991D02*
G01*
X575033Y1105011D01*
X575033Y1349885D01*
X199999Y1130010D02*
G01*
X335018Y994991D01*
X465013Y994991D01*
X764997Y3534994D02*
G01*
X764997Y2555003D01*
X860000Y2460000D01*
X1880001Y2460000D01*
X2060000Y2280000D01*
X3740002Y2280000D01*
X3219958Y1480057D02*
G01*
X3020059Y1679955D01*
X2940050Y1679955D01*
X3739895Y2279904D02*
G01*
X3780027Y2240026D01*
X3780027Y1960118D01*
X3919981Y1960118D01*
X3999991Y1880107D01*
X3999991Y1540002D01*
X3940047Y1480057D01*
D13*
X1850001Y749901D02*
G01*
X1840001Y739902D01*
X1840001Y659993D01*
X1849993Y650001D01*
X1850001Y650001D01*
X1750108Y650001D01*
D12*
X2939999Y1680001D02*
G01*
X2739999Y1680001D01*
X2700002Y1640004D01*
X2700002Y239996D01*
X2600002Y139997D01*
X2179998Y139997D01*
X2120005Y199994D01*
X2120005Y560003D01*
X2020016Y659993D01*
X1840001Y659993D01*
D14*
X749968Y1499996D02*
G01*
X899967Y1499996D01*
D15*
X514936Y1499996D02*
G01*
X654936Y1499996D01*
X515030Y1349882D02*
G01*
X635030Y1349882D01*
X515030Y1650111D02*
G01*
X635030Y1650111D01*
D16*
X1449882Y1181008D02*
G01*
X1449882Y1119009D01*
X1499920Y1181008D02*
G01*
X1499920Y1119009D01*
X1549958Y1181008D02*
G01*
X1549958Y1119009D01*
X1599996Y1181008D02*
G01*
X1599996Y1119009D01*
X1650034Y1181008D02*
G01*
X1650034Y1119009D01*
X1700072Y1181008D02*
G01*
X1700072Y1119009D01*
X1750110Y1181008D02*
G01*
X1750110Y1119009D01*
X1819010Y1050137D02*
G01*
X1881009Y1050137D01*
X1819010Y1000099D02*
G01*
X1881009Y1000099D01*
X1819010Y950061D02*
G01*
X1881009Y950061D01*
X1819010Y900023D02*
G01*
X1881009Y900023D01*
X1819010Y849985D02*
G01*
X1881009Y849985D01*
X1819010Y799947D02*
G01*
X1881009Y799947D01*
X1819010Y749909D02*
G01*
X1881009Y749909D01*
X1750110Y681009D02*
G01*
X1750110Y619010D01*
X1700072Y681009D02*
G01*
X1700072Y619010D01*
X1650034Y681009D02*
G01*
X1650034Y619010D01*
X1599996Y681009D02*
G01*
X1599996Y619010D01*
X1549958Y681009D02*
G01*
X1549958Y619010D01*
X1499920Y681009D02*
G01*
X1499920Y619010D01*
X1449882Y681009D02*
G01*
X1449882Y619010D01*
X1319011Y749909D02*
G01*
X1381010Y749909D01*
X1319011Y799947D02*
G01*
X1381010Y799947D01*
X1319011Y849985D02*
G01*
X1381010Y849985D01*
X1319011Y900023D02*
G01*
X1381010Y900023D01*
X1319011Y950061D02*
G01*
X1381010Y950061D01*
X1319011Y1000099D02*
G01*
X1381010Y1000099D01*
X1319011Y1050137D02*
G01*
X1381010Y1050137D01*
D18*
G01*
X4260011Y2720009D03*
G01*
X4260011Y2159990D03*
D19*
G01*
X199999Y1270000D03*
G01*
X199999Y1129995D03*
D20*
G01*
X1940001Y419988D03*
G01*
X1940001Y219989D03*
D21*
G01*
X2934309Y1154303D03*
G01*
X2934309Y925703D03*
D22*
G01*
X2385669Y1040003D03*
D20*
G01*
X2939999Y1680006D03*
G01*
X2939999Y1480007D03*
D23*
G01*
X1740001Y210007D03*
G01*
X1740001Y310006D03*
D24*
G01*
X5200015Y199999D03*
G01*
X5400014Y3999992D03*
G36*
X1424993Y1075021D02*
G01*
X1774995Y1075021D01*
X1774995Y725020D01*
X1424993Y725020D01*
G37*
D23*
G01*
X1549984Y1599996D03*
G01*
X1549984Y1499996D03*
D26*
G01*
X2399995Y1760016D03*
G01*
X2399995Y1440002D03*
G01*
X2050008Y1760016D03*
G01*
X2050008Y1440002D03*
D20*
G01*
X1199997Y1699996D03*
G01*
X1199997Y1499996D03*
D27*
G01*
X259994Y1440002D03*
G01*
X259994Y1760016D03*
D23*
G01*
X1120012Y510006D03*
G01*
X1120012Y610006D03*
G01*
X1120012Y750011D03*
G01*
X1120012Y850011D03*
G01*
X1399997Y1599996D03*
G01*
X1399997Y1499996D03*
G01*
X1699996Y1599996D03*
G01*
X1699996Y1499996D03*
D28*
G01*
X2872993Y299973D03*
G01*
X3126993Y299973D03*
G01*
X2273045Y299973D03*
G01*
X2527045Y299973D03*
G01*
X4472940Y3899915D03*
G01*
X4726940Y3899915D03*
G01*
X3872991Y3899915D03*
G01*
X4126991Y3899915D03*
D29*
G01*
X257047Y2010918D03*
G01*
X511047Y2010918D03*
G01*
X765047Y2010918D03*
G01*
X1019047Y2010918D03*
G01*
X1273047Y2010918D03*
G01*
X1527047Y2010918D03*
G01*
X1781047Y2010918D03*
G01*
X2035047Y2010918D03*
G01*
X2289047Y2010918D03*
G01*
X2543047Y2010918D03*
G01*
X2797047Y2010918D03*
G01*
X3051047Y2010918D03*
D30*
G01*
X3305047Y2010918D03*
G01*
X3559047Y2010918D03*
G01*
X3559047Y3534918D03*
G01*
X3305047Y3534918D03*
G01*
X3051047Y3534918D03*
G01*
X2797047Y3534918D03*
G01*
X2543047Y3534918D03*
G01*
X2289047Y3534918D03*
G01*
X2035047Y3534918D03*
G01*
X1781047Y3534918D03*
G01*
X1527047Y3534918D03*
G01*
X1273047Y3534918D03*
G01*
X1019047Y3534918D03*
G01*
X765047Y3534918D03*
G01*
X511047Y3534918D03*
G01*
X257047Y3534918D03*
G36*
X3290069Y1205105D02*
G01*
X3569977Y1205105D01*
X3569977Y844933D01*
X3290069Y844933D01*
G37*
G36*
X4430021Y1205105D02*
G01*
X4709929Y1205105D01*
X4709929Y844933D01*
X4430021Y844933D01*
G37*
D14*
G01*
X3750056Y1725040D03*
G01*
X4249927Y1725040D03*
G01*
X3750056Y274954D03*
G01*
X3999991Y274954D03*
G01*
X4249927Y274954D03*
D32*
G01*
X1980996Y3900119D03*
G01*
X1726996Y3900119D03*
G01*
X1472996Y3900119D03*
G01*
X1218996Y3899865D03*
D17*
G01*
X4260011Y2520010D03*
G01*
X1940001Y299999D03*
G01*
X2320010Y819988D03*
G01*
X2159990Y980008D03*
G01*
X1720011Y459994D03*
G01*
X1620012Y440004D03*
G01*
X1520012Y419988D03*
G01*
X1120012Y1019987D03*
G01*
X1699996Y799998D03*
G01*
X1599996Y799998D03*
G01*
X1499996Y799998D03*
G01*
X1499996Y899998D03*
G01*
X1699996Y899998D03*
G01*
X1699996Y999997D03*
G01*
X1599996Y999997D03*
G01*
X1499996Y999997D03*
G01*
X1599996Y900023D03*
G01*
X599998Y780008D03*
G01*
X1840001Y1459992D03*
G01*
X2340000Y1299997D03*
G01*
X1640001Y1299997D03*
G01*
X1540002Y1299997D03*
G01*
X1720011Y1299997D03*
G01*
X2399995Y1650009D03*
G01*
X2050034Y1649984D03*
G01*
X1699996Y1699996D03*
G01*
X1550009Y1699996D03*
G01*
X1459992Y1699996D03*
G01*
X999997Y1699996D03*
G01*
X824966Y1499996D03*
G01*
X1450086Y1249934D03*
G01*
X5400014Y3839997D03*
G01*
X1440002Y399999D03*
G01*
X3939997Y1480007D03*
G01*
X3220008Y1480007D03*
G01*
X1840001Y659993D03*
D33*
X365023Y405003D02*
G01*
X565022Y405003D01*
X935024Y624992D02*
G01*
X935024Y824992D01*
X365023Y994994D02*
G01*
X565022Y994994D01*
M02*
